<svg width="29" height="29" viewBox="0 0 29 29" fill="none" xmlns="http://www.w3.org/2000/svg">
<path d="M3.59265 12.4523L3.53699 16.2106C3.52997 16.6696 3.7016 17.1083 4.02145 17.4381C4.3413 17.7679 4.7728 17.9545 5.23356 17.9598L9.27951 18.0252C9.73848 18.0322 10.179 17.8588 10.5088 17.539C10.8404 17.2174 11.0253 16.7876 11.0323 16.3251L11.0825 13.16C12.2896 12.6991 13.5739 12.4736 14.8659 12.4957C16.1652 12.512 17.4324 12.775 18.6291 13.27L18.5789 16.4351C18.5719 16.8941 18.7436 17.3329 19.0634 17.6626C19.2206 17.8259 19.4087 17.9561 19.6169 18.0457C19.825 18.1353 20.0489 18.1824 20.2755 18.1844L24.3232 18.2515C24.7822 18.2585 25.2227 18.0852 25.5525 17.7653C25.884 17.4437 26.0689 17.014 26.076 16.5515L26.1334 12.795C26.1454 12.0112 25.8411 11.242 25.2953 10.6792C25.1823 10.5627 25.0638 10.4585 24.9328 10.3629C22.2406 8.36895 18.693 7.23944 14.9489 7.18046C11.2029 7.12675 7.62413 8.14913 4.86698 10.0581C4.08358 10.5988 3.60901 11.4973 3.59265 12.4523ZM5.88615 11.5356C8.33818 9.83568 11.5479 8.92773 14.9196 8.97925C18.2913 9.03077 21.4701 10.0346 23.869 11.8087C24.1711 12.0305 24.3457 12.3898 24.3416 12.7694L24.2853 16.4588L20.3716 16.4007L20.4398 12.1677L20.4403 12.1359L19.9215 11.8878C18.3515 11.1326 16.636 10.7278 14.894 10.7015C13.152 10.6752 11.425 11.028 9.83293 11.7354L9.30674 11.9675L9.24337 16.2307L5.32973 16.1727L5.38611 12.4832C5.39194 12.1019 5.57744 11.7481 5.88615 11.5356Z" fill="white"/>
</svg>
