<svg width="23" height="19" viewBox="0 0 23 19" fill="none" xmlns="http://www.w3.org/2000/svg">
<path d="M20.7764 5.72656C21.1133 5.91374 21.4202 6.14583 21.6973 6.42285C21.9743 6.69238 22.2064 6.99186 22.3936 7.32129C22.5882 7.64323 22.738 7.99137 22.8428 8.36572C22.9476 8.73258 23 9.11068 23 9.5H21.5625C21.5625 9.11068 21.4839 8.74007 21.3267 8.38818C21.1769 8.0363 20.971 7.73307 20.709 7.47852C20.4544 7.21647 20.1512 7.01058 19.7993 6.86084C19.4474 6.70361 19.0768 6.625 18.6875 6.625C18.2907 6.625 17.9163 6.70361 17.5645 6.86084C17.2201 7.01058 16.9168 7.21647 16.6548 7.47852C16.4002 7.73307 16.1943 8.0363 16.0371 8.38818C15.8874 8.74007 15.8125 9.11068 15.8125 9.5C15.8125 10.1813 15.6553 10.8289 15.3408 11.4429C15.0339 12.0568 14.6071 12.5659 14.0605 12.9702C14.5472 13.2173 14.9852 13.5243 15.3745 13.8911C15.7713 14.2505 16.1082 14.6548 16.3853 15.104C16.6623 15.5457 16.8757 16.0249 17.0254 16.5415C17.1751 17.0506 17.25 17.5785 17.25 18.125H15.8125C15.8125 17.5335 15.6965 16.9757 15.4644 16.4517C15.2397 15.9276 14.9328 15.4709 14.5435 15.0815C14.1541 14.6922 13.6974 14.3853 13.1733 14.1606C12.6493 13.9285 12.0915 13.8125 11.5 13.8125C10.9085 13.8125 10.3507 13.9285 9.82666 14.1606C9.30257 14.3853 8.84587 14.6922 8.45654 15.0815C8.06722 15.4709 7.75651 15.9276 7.52441 16.4517C7.2998 16.9757 7.1875 17.5335 7.1875 18.125H5.75C5.75 17.5785 5.82487 17.0506 5.97461 16.5415C6.12435 16.0249 6.33773 15.5457 6.61475 15.104C6.89176 14.6548 7.22493 14.2505 7.61426 13.8911C8.01107 13.5243 8.4528 13.2173 8.93945 12.9702C8.3929 12.5659 7.9624 12.0568 7.64795 11.4429C7.34098 10.8289 7.1875 10.1813 7.1875 9.5C7.1875 9.11068 7.10889 8.74007 6.95166 8.38818C6.80192 8.0363 6.59603 7.73307 6.33398 7.47852C6.07943 7.21647 5.7762 7.01058 5.42432 6.86084C5.07243 6.70361 4.70182 6.625 4.3125 6.625C3.91569 6.625 3.54134 6.70361 3.18945 6.86084C2.84505 7.01058 2.54183 7.21647 2.27979 7.47852C2.02523 7.73307 1.81934 8.0363 1.66211 8.38818C1.51237 8.74007 1.4375 9.11068 1.4375 9.5H0C0 9.11068 0.0524089 8.73258 0.157227 8.36572C0.262044 7.99137 0.40804 7.64323 0.595215 7.32129C0.789876 6.99186 1.02572 6.69238 1.30273 6.42285C1.57975 6.14583 1.88672 5.91374 2.22363 5.72656C1.97656 5.46452 1.7819 5.1613 1.63965 4.81689C1.50488 4.47249 1.4375 4.11686 1.4375 3.75C1.4375 3.36068 1.51237 2.99007 1.66211 2.63818C1.81934 2.2863 2.02523 1.98307 2.27979 1.72852C2.54183 1.46647 2.84505 1.26058 3.18945 1.11084C3.54134 0.953613 3.91569 0.875 4.3125 0.875C4.70182 0.875 5.07243 0.953613 5.42432 1.11084C5.7762 1.26058 6.07943 1.46647 6.33398 1.72852C6.59603 1.98307 6.80192 2.2863 6.95166 2.63818C7.10889 2.99007 7.1875 3.36068 7.1875 3.75C7.1875 4.11686 7.11637 4.47249 6.97412 4.81689C6.83936 5.1613 6.64844 5.46452 6.40137 5.72656C7.0153 6.06348 7.51693 6.52767 7.90625 7.11914C8.31055 6.52018 8.82715 6.0485 9.45605 5.7041C10.0924 5.3597 10.7738 5.1875 11.5 5.1875C12.2262 5.1875 12.9038 5.3597 13.5327 5.7041C14.1691 6.0485 14.6895 6.52018 15.0938 7.11914C15.4831 6.52767 15.9847 6.06348 16.5986 5.72656C16.3516 5.46452 16.1569 5.1613 16.0146 4.81689C15.8799 4.47249 15.8125 4.11686 15.8125 3.75C15.8125 3.36068 15.8874 2.99007 16.0371 2.63818C16.1943 2.2863 16.4002 1.98307 16.6548 1.72852C16.9168 1.46647 17.2201 1.26058 17.5645 1.11084C17.9163 0.953613 18.2907 0.875 18.6875 0.875C19.0768 0.875 19.4474 0.953613 19.7993 1.11084C20.1512 1.26058 20.4544 1.46647 20.709 1.72852C20.971 1.98307 21.1769 2.2863 21.3267 2.63818C21.4839 2.99007 21.5625 3.36068 21.5625 3.75C21.5625 4.11686 21.4914 4.47249 21.3491 4.81689C21.2144 5.1613 21.0234 5.46452 20.7764 5.72656ZM2.875 3.75C2.875 3.95215 2.91243 4.13932 2.9873 4.31152C3.06217 4.48372 3.16325 4.63721 3.29053 4.77197C3.42529 4.89925 3.57878 5.00033 3.75098 5.0752C3.92318 5.15007 4.11035 5.1875 4.3125 5.1875C4.51465 5.1875 4.70182 5.15007 4.87402 5.0752C5.04622 5.00033 5.19596 4.89925 5.32324 4.77197C5.45801 4.63721 5.56283 4.48372 5.6377 4.31152C5.71257 4.13932 5.75 3.95215 5.75 3.75C5.75 3.54785 5.71257 3.36068 5.6377 3.18848C5.56283 3.01628 5.45801 2.86654 5.32324 2.73926C5.19596 2.60449 5.04622 2.49967 4.87402 2.4248C4.70182 2.34993 4.51465 2.3125 4.3125 2.3125C4.11035 2.3125 3.92318 2.34993 3.75098 2.4248C3.57878 2.49967 3.42529 2.60449 3.29053 2.73926C3.16325 2.86654 3.06217 3.01628 2.9873 3.18848C2.91243 3.36068 2.875 3.54785 2.875 3.75ZM11.5 12.375C11.8893 12.375 12.2599 12.3001 12.6118 12.1504C12.9637 11.9932 13.2669 11.7873 13.5215 11.5327C13.7835 11.2707 13.9894 10.9674 14.1392 10.623C14.2964 10.2712 14.375 9.89681 14.375 9.5C14.375 9.11068 14.2964 8.74007 14.1392 8.38818C13.9894 8.0363 13.7835 7.73307 13.5215 7.47852C13.2669 7.21647 12.9637 7.01058 12.6118 6.86084C12.2599 6.70361 11.8893 6.625 11.5 6.625C11.1032 6.625 10.7288 6.70361 10.377 6.86084C10.0326 7.01058 9.72933 7.21647 9.46729 7.47852C9.21273 7.73307 9.00684 8.0363 8.84961 8.38818C8.69987 8.74007 8.625 9.11068 8.625 9.5C8.625 9.89681 8.69987 10.2712 8.84961 10.623C9.00684 10.9674 9.21273 11.2707 9.46729 11.5327C9.72933 11.7873 10.0326 11.9932 10.377 12.1504C10.7288 12.3001 11.1032 12.375 11.5 12.375ZM17.25 3.75C17.25 3.95215 17.2874 4.13932 17.3623 4.31152C17.4372 4.48372 17.5382 4.63721 17.6655 4.77197C17.8003 4.89925 17.9538 5.00033 18.126 5.0752C18.2982 5.15007 18.4854 5.1875 18.6875 5.1875C18.8896 5.1875 19.0768 5.15007 19.249 5.0752C19.4212 5.00033 19.571 4.89925 19.6982 4.77197C19.833 4.63721 19.9378 4.48372 20.0127 4.31152C20.0876 4.13932 20.125 3.95215 20.125 3.75C20.125 3.54785 20.0876 3.36068 20.0127 3.18848C19.9378 3.01628 19.833 2.86654 19.6982 2.73926C19.571 2.60449 19.4212 2.49967 19.249 2.4248C19.0768 2.34993 18.8896 2.3125 18.6875 2.3125C18.4854 2.3125 18.2982 2.34993 18.126 2.4248C17.9538 2.49967 17.8003 2.60449 17.6655 2.73926C17.5382 2.86654 17.4372 3.01628 17.3623 3.18848C17.2874 3.36068 17.25 3.54785 17.25 3.75Z" fill="#D96815"/>
</svg>
