<svg width="23" height="21" viewBox="0 0 23 21" fill="none" xmlns="http://www.w3.org/2000/svg">
<path d="M21.375 0H1.125C0.826794 0.000528736 0.540953 0.119225 0.330089 0.330089C0.119225 0.540953 0.000528736 0.826794 0 1.125V15C0.000528736 15.2982 0.119225 15.584 0.330089 15.7949C0.540953 16.0058 0.826794 16.1245 1.125 16.125H10.5V19.5H6.75V21H15.75V19.5H12V16.125H21.375C21.6732 16.1245 21.959 16.0058 22.1699 15.7949C22.3808 15.584 22.4995 15.2982 22.5 15V1.125C22.4995 0.826794 22.3808 0.540953 22.1699 0.330089C21.959 0.119225 21.6732 0.000528736 21.375 0ZM21 14.625H1.5V1.5H21V14.625Z" fill="#D96815"/>
</svg>
