<svg width="16" height="20" viewBox="0 0 16 20" fill="none" xmlns="http://www.w3.org/2000/svg">
<path d="M7.27273 11.5179H4.81818C4.76996 11.5179 4.72371 11.5367 4.68962 11.5702C4.65552 11.6036 4.63636 11.6491 4.63636 11.6964V12.7679C4.63636 12.8152 4.65552 12.8606 4.68962 12.8941C4.72371 12.9276 4.76996 12.9464 4.81818 12.9464H7.27273V15.3571C7.27273 15.4045 7.29188 15.4499 7.32598 15.4834C7.36008 15.5169 7.40632 15.5357 7.45455 15.5357H8.54545C8.59368 15.5357 8.63992 15.5169 8.67402 15.4834C8.70812 15.4499 8.72727 15.4045 8.72727 15.3571V12.9464H11.1818C11.23 12.9464 11.2763 12.9276 11.3104 12.8941C11.3445 12.8606 11.3636 12.8152 11.3636 12.7679V11.6964C11.3636 11.6491 11.3445 11.6036 11.3104 11.5702C11.2763 11.5367 11.23 11.5179 11.1818 11.5179H8.72727V9.10714C8.72727 9.05978 8.70812 9.01436 8.67402 8.98087C8.63992 8.94738 8.59368 8.92857 8.54545 8.92857H7.45455C7.40632 8.92857 7.36008 8.94738 7.32598 8.98087C7.29188 9.01436 7.27273 9.05978 7.27273 9.10714V11.5179ZM15.7864 5.01563C15.9227 5.14955 16 5.33036 16 5.52009V19.2857C16 19.6808 15.675 20 15.2727 20H0.727273C0.325 20 0 19.6808 0 19.2857V0.714286C0 0.319196 0.325 0 0.727273 0H10.3795C10.5727 0 10.7591 0.0758929 10.8955 0.209821L15.7864 5.01563ZM14.3227 5.84821L10.0455 1.64732V5.84821H14.3227Z" fill="#EF7921"/>
</svg>
