<svg width="26" height="20" viewBox="0 0 26 20" fill="none" xmlns="http://www.w3.org/2000/svg">
<path d="M15.3185 12.5426C15.8612 11.9559 16.1611 11.1908 16.1591 10.3977C16.1591 8.6392 14.7177 7.21591 12.9412 7.21591C11.1647 7.21591 9.72321 8.6392 9.72321 10.3977C9.72321 11.2244 10.041 11.9744 10.5638 12.5426C9.93735 12.9244 9.41415 13.4496 9.03889 14.0735C8.66364 14.6973 8.44748 15.4012 8.40888 16.125C8.40731 16.1558 8.41213 16.1866 8.42304 16.2155C8.43395 16.2444 8.45072 16.2708 8.47234 16.2931C8.49395 16.3154 8.51996 16.3332 8.54878 16.3453C8.5776 16.3574 8.60862 16.3637 8.63997 16.3636H9.90809C10.0294 16.3636 10.1276 16.2699 10.1363 16.1506C10.2461 14.7131 11.4651 13.5795 12.9441 13.5795C14.4231 13.5795 15.6421 14.7159 15.7518 16.1506C15.7605 16.2699 15.8587 16.3636 15.98 16.3636H17.2453C17.2766 16.3637 17.3076 16.3574 17.3365 16.3453C17.3653 16.3332 17.3913 16.3154 17.4129 16.2931C17.4345 16.2708 17.4513 16.2444 17.4622 16.2155C17.4731 16.1866 17.4779 16.1558 17.4764 16.125C17.3955 14.6108 16.552 13.2926 15.3185 12.5426ZM12.9412 11.875C12.1179 11.875 11.4477 11.2131 11.4477 10.3977C11.4477 9.58239 12.1179 8.92045 12.9412 8.92045C13.7644 8.92045 14.4346 9.58239 14.4346 10.3977C14.4346 11.2131 13.7644 11.875 12.9412 11.875ZM24.958 1.81818H20.3361V0.227273C20.3361 0.102273 20.2321 0 20.105 0H18.4874C18.3603 0 18.2563 0.102273 18.2563 0.227273V1.81818H13.9811V0.227273C13.9811 0.102273 13.8771 0 13.75 0H12.1324C12.0053 0 11.9013 0.102273 11.9013 0.227273V1.81818H7.62605V0.227273C7.62605 0.102273 7.52206 0 7.39496 0H5.77731C5.65021 0 5.54622 0.102273 5.54622 0.227273V1.81818H0.92437C0.413078 1.81818 0 2.22443 0 2.72727V19.0909C0 19.5938 0.413078 20 0.92437 20H24.958C25.4693 20 25.8824 19.5938 25.8824 19.0909V2.72727C25.8824 2.22443 25.4693 1.81818 24.958 1.81818ZM23.8025 17.9545H2.07983V3.86364H5.54622V5.45455C5.54622 5.57955 5.65021 5.68182 5.77731 5.68182H7.39496C7.52206 5.68182 7.62605 5.57955 7.62605 5.45455V3.86364H11.9013V5.45455C11.9013 5.57955 12.0053 5.68182 12.1324 5.68182H13.75C13.8771 5.68182 13.9811 5.57955 13.9811 5.45455V3.86364H18.2563V5.45455C18.2563 5.57955 18.3603 5.68182 18.4874 5.68182H20.105C20.2321 5.68182 20.3361 5.57955 20.3361 5.45455V3.86364H23.8025V17.9545Z" fill="white"/>
</svg>
