<svg width="19" height="20" viewBox="0 0 19 20" fill="none" xmlns="http://www.w3.org/2000/svg">
<path d="M18.1712 3.1671L15.6418 0.507437C15.3331 0.182477 14.9198 0 14.4828 0C14.0458 0 13.6326 0.179978 13.3238 0.507437L10.5997 3.36958C10.2909 3.69454 10.1175 4.13198 10.1175 4.59193C10.1175 5.05437 10.2885 5.48681 10.5997 5.81427L12.7277 8.05649C12.2429 9.24531 11.5464 10.3255 10.6757 11.2386C9.80404 12.161 8.78516 12.8884 7.65466 13.4033L5.52665 11.1611C5.2179 10.8361 4.80465 10.6537 4.36764 10.6537C4.1521 10.6528 3.93856 10.6973 3.73954 10.7844C3.54052 10.8715 3.36003 10.9996 3.20864 11.1611L0.482127 14.0232C0.173376 14.3482 0 14.7857 0 15.2456C0 15.708 0.171001 16.1405 0.482127 16.4679L3.00914 19.1276C3.53639 19.6825 4.26314 20 5.0089 20C5.16327 20 5.3129 19.9875 5.4649 19.96C8.60941 19.4151 11.7302 17.6528 14.2501 15.0031C16.7676 12.3485 18.4396 9.06387 18.9621 5.75178C19.1117 4.8119 18.8125 3.84452 18.1712 3.1671ZM17.2782 5.45432C16.8151 8.40145 15.3093 11.3411 13.0412 13.7283C10.773 16.1155 7.98241 17.7003 5.18227 18.1877C4.83077 18.2502 4.46977 18.1252 4.21327 17.8578L1.73138 15.2456L4.36289 12.4734L7.20816 15.4731L7.22953 15.4956L7.74253 15.2956C9.29799 14.6937 10.7105 13.743 11.8822 12.5094C13.0538 11.2758 13.9566 9.78881 14.5279 8.15148L14.7179 7.61155L11.8489 4.59443L14.4804 1.82227L16.9623 4.43445C17.2188 4.70441 17.3376 5.08436 17.2782 5.45432Z" fill="white"/>
</svg>
