<svg xmlns="http://www.w3.org/2000/svg" width="77" height="77" viewBox="0 0 77 77"><defs><style>.a{fill:#1a1a1a;stroke:#ea7c3f;stroke-miterlimit:10;stroke-width:2px;}.b{fill:#fff;}</style></defs><g transform="translate(-149.5 -651.5)"><circle class="a" cx="37.5" cy="37.5" r="37.5" transform="translate(150.5 652.5)"/><g transform="translate(167.492 669.492)"><path class="b" d="M96.762,76.014l1.8-5.276a.991.991,0,0,0-1.258-1.258l-1.485.507a.6.6,0,0,0,.39,1.141l1.071-.366L95.588,75.72a.987.987,0,0,0,.1.846l2.852,4.568-5.494-.43a.986.986,0,0,0-.91.45l-2.783,4.307-1.416-4.69a.989.989,0,0,0-.662-.663l-4.69-1.416,4.307-2.783a.99.99,0,0,0,.45-.91l-.43-5.494,4.569,2.852a.988.988,0,0,0,.845.1l1.45-.5a.6.6,0,1,0-.39-1.141l-1.354.462-4.843-3.024a.991.991,0,0,0-1.513.918l.453,5.791-4.59,2.965a.991.991,0,0,0,.251,1.781l2.7.814L70.175,94.839a.6.6,0,0,0,.853.853L85.8,80.924l1.017.307.307,1.017-4.509,4.509a.6.6,0,0,0,.853.853l4.052-4.052.814,2.7a.982.982,0,0,0,.81.695,1.01,1.01,0,0,0,.143.01.98.98,0,0,0,.828-.454l2.965-4.59,5.791.453a.991.991,0,0,0,.918-1.513Z" transform="translate(-64.37 -62.659)"/><path class="b" d="M16.421,320.656,2.84,334.236a.976.976,0,0,1-1.376.051.976.976,0,0,1,.051-1.376l3.322-3.322a.6.6,0,0,0-.853-.853L.663,332.059a2.182,2.182,0,0,0-.051,3.082,2.1,2.1,0,0,0,1.494.612,2.246,2.246,0,0,0,1.588-.663l13.581-13.581a.6.6,0,0,0-.853-.853Z" transform="translate(0 -294.737)"/><path class="b" d="M153.516,105.79a.963.963,0,0,0,.757.064l2.376-.8a.959.959,0,0,0,.391-1.57l-1.777-1.871a.961.961,0,0,0-1.308-.079h0a3.363,3.363,0,0,0-.915,3.656A.965.965,0,0,0,153.516,105.79Zm1.041-3.166,1.342,1.414-1.756.588A2.1,2.1,0,0,1,154.557,102.624Z" transform="translate(-140.571 -93.199)"/><path class="b" d="M307.719,4.444a.954.954,0,0,0,.787.412h.04a.955.955,0,0,0,.791-.476l1.3-2.231a.961.961,0,0,0-.291-1.277h0a3.363,3.363,0,0,0-3.765.149.96.96,0,0,0-.288,1.367Zm1.749-2.692-.98,1.685-1.057-1.52A2.1,2.1,0,0,1,309.468,1.752Z" transform="translate(-281.502 -0.352)"/><path class="b" d="M230.829,21.273a.6.6,0,1,0,.938-.758l-1.1-1.359a.6.6,0,0,0-.938.758Z" transform="translate(-211.134 -17.438)"/><path class="b" d="M355.2,303.289a.959.959,0,0,0-1.571.391l-.8,2.376a.961.961,0,0,0,.66,1.231,4.816,4.816,0,0,0,1.258.18,3,3,0,0,0,2.4-1.095.961.961,0,0,0-.079-1.307Zm-1.137,2.9.588-1.756,1.414,1.342A2.1,2.1,0,0,1,354.062,306.186Z" transform="translate(-324.416 -278.686)"/><path class="b" d="M458.748,147.652h0a.961.961,0,0,0-1.277-.291l-2.231,1.3a.959.959,0,0,0-.065,1.617l2.057,1.431a.96.96,0,0,0,1.368-.288A3.271,3.271,0,0,0,458.748,147.652Zm-1.047,2.911-1.52-1.057,1.685-.98A2.1,2.1,0,0,1,457.7,150.563Z" transform="translate(-418.194 -135.42)"/><path class="b" d="M462.633,254.1l-1.359-1.1a.6.6,0,0,0-.758.938l1.359,1.1a.6.6,0,0,0,.758-.938Z" transform="translate(-423.279 -232.559)"/><path class="b" d="M442.4,40.553a.6.6,0,0,0-.852-.028l-1.508,1.411a.6.6,0,0,0,.824.881l1.508-1.411A.6.6,0,0,0,442.4,40.553Z" transform="translate(-404.475 -37.145)"/></g></g></svg>