<svg xmlns="http://www.w3.org/2000/svg" width="77" height="77" viewBox="0 0 77 77"><defs><style>.a{fill:#1a1a1a;stroke:#ea7c3f;stroke-miterlimit:10;stroke-width:2px;}.b{fill:#fff;}</style></defs><g transform="translate(-149.5 -273.5)"><circle class="a" cx="37.5" cy="37.5" r="37.5" transform="translate(150.5 274.5)"/><g transform="translate(167.492 291.492)"><path class="b" d="M41.351,28.781h-.661V7.613A3.973,3.973,0,0,0,36.72,3.644H24.747a3.307,3.307,0,0,0-6.483,0H6.292A3.973,3.973,0,0,0,2.323,7.613V28.781H1.661A.661.661,0,0,0,1,29.442v2.646A3.311,3.311,0,0,0,4.307,35.4H21.853a5.911,5.911,0,0,0-.347,1.984v3.969a.661.661,0,0,0,.661.661H38.043a.661.661,0,0,0,.661-.661V37.38a5.911,5.911,0,0,0-.347-1.984H38.7a3.311,3.311,0,0,0,3.307-3.307V29.442A.661.661,0,0,0,41.351,28.781ZM39.366,7.613V28.781H35.223a5.261,5.261,0,0,0,.174-1.323h1.984a.661.661,0,0,0,.661-.661V6.952a.661.661,0,0,0-.661-.661H24.135a3.277,3.277,0,0,0,.613-1.323H36.72A2.646,2.646,0,0,1,39.366,7.613ZM30.106,31.427a3.973,3.973,0,0,1-3.969-3.969V26.135a3.969,3.969,0,1,1,7.938,0v1.323A3.973,3.973,0,0,1,30.106,31.427Zm-5.292-5.292H23.491v-8.6H36.72v8.6H35.4a5.292,5.292,0,0,0-2.651-4.579c0-.017,0-.034,0-.052a2.646,2.646,0,0,0-5.292,0c0,.017,0,.034,0,.052a5.292,5.292,0,0,0-2.651,4.579ZM22.168,7.613V26.135H6.292V7.613Zm14.553,8.6H34.676A3.977,3.977,0,0,0,32.2,13.178a2.62,2.62,0,0,0,.549-1.6,2.646,2.646,0,1,0-5.292,0,2.619,2.619,0,0,0,.549,1.6,3.977,3.977,0,0,0-2.474,3.035H23.491v-8.6H36.72Zm-6.615-3.307a1.323,1.323,0,1,1,1.323-1.323A1.323,1.323,0,0,1,30.106,12.905Zm-.661,1.323h1.323a2.646,2.646,0,0,1,2.552,1.984H26.892A2.646,2.646,0,0,1,29.444,14.228Zm1.881,6.762a5.111,5.111,0,0,0-2.438,0,1.323,1.323,0,0,1,2.438,0ZM21.506,2.321a1.984,1.984,0,1,1-1.984,1.984A1.984,1.984,0,0,1,21.506,2.321ZM3.646,7.613A2.646,2.646,0,0,1,6.292,4.967H18.265a3.277,3.277,0,0,0,.612,1.323H5.63a.661.661,0,0,0-.661.661V26.8a.661.661,0,0,0,.661.661H24.814a5.261,5.261,0,0,0,.174,1.323H3.646Zm.661,26.46a1.984,1.984,0,0,1-1.984-1.984V30.1H25.529a5.326,5.326,0,0,0,1.15,1.38,5.958,5.958,0,0,0-4.167,2.589Zm33.074,6.615H35.4V38.042H34.074v2.646H26.137V38.042H24.814v2.646H22.829V37.38a4.636,4.636,0,0,1,4.63-4.63h5.292a4.636,4.636,0,0,1,4.63,4.63Zm3.307-8.6A1.984,1.984,0,0,1,38.7,34.073H37.7a5.958,5.958,0,0,0-4.167-2.589,5.327,5.327,0,0,0,1.151-1.38h6.008Z" transform="translate(-1 -0.995)"/><rect class="b" width="1.344" height="1.344" transform="translate(19.834 2.633)"/><path class="b" d="M11.661,28.876H23.568a.661.661,0,0,0,.661-.661V25.568a4.637,4.637,0,0,0-3.744-4.543,3.95,3.95,0,0,0,1.1-2.733V16.969a3.969,3.969,0,0,0-7.938,0v1.323a3.951,3.951,0,0,0,1.1,2.733A4.637,4.637,0,0,0,11,25.568v2.646A.661.661,0,0,0,11.661,28.876Zm7.276-6.615a1.323,1.323,0,0,1-2.646,0Zm-3.969-5.292a2.646,2.646,0,0,1,5.292,0v1.323a2.646,2.646,0,1,1-5.292,0Zm-2.646,8.6a3.313,3.313,0,0,1,2.653-3.241,2.64,2.64,0,0,0,5.279,0,3.313,3.313,0,0,1,2.653,3.241v1.984H21.584V24.907H20.261v2.646H14.969V24.907H13.646v2.646H12.323Z" transform="translate(-4.385 -5.059)"/></g></g></svg>