<svg width="54" height="41" viewBox="0 0 54 41" fill="none" xmlns="http://www.w3.org/2000/svg">
<path d="M48.0093 11.8555C48.7783 12.2827 49.479 12.8125 50.1113 13.4448C50.7437 14.0601 51.2734 14.7437 51.7007 15.4956C52.145 16.2305 52.4868 17.0251 52.7261 17.8796C52.9653 18.717 53.085 19.5801 53.085 20.4688H49.8037C49.8037 19.5801 49.6243 18.7341 49.2654 17.9309C48.9236 17.1277 48.4536 16.4355 47.8555 15.8545C47.2744 15.2563 46.5823 14.7864 45.7791 14.4446C44.9758 14.0857 44.1299 13.9062 43.2412 13.9062C42.3354 13.9062 41.481 14.0857 40.6777 14.4446C39.8916 14.7864 39.1995 15.2563 38.6013 15.8545C38.0203 16.4355 37.5503 17.1277 37.1914 17.9309C36.8496 18.7341 36.6787 19.5801 36.6787 20.4688C36.6787 22.0239 36.3198 23.5022 35.6021 24.9036C34.9014 26.3049 33.9272 27.467 32.6797 28.3899C33.7905 28.9539 34.7903 29.6545 35.679 30.4919C36.5847 31.3123 37.3538 32.2351 37.9861 33.2605C38.6184 34.2688 39.1055 35.3625 39.4473 36.5417C39.7891 37.7039 39.96 38.9087 39.96 40.1562H36.6787C36.6787 38.8062 36.4138 37.533 35.884 36.3367C35.3713 35.1404 34.6707 34.0979 33.782 33.2092C32.8933 32.3206 31.8508 31.6199 30.6545 31.1072C29.4583 30.5774 28.1851 30.3125 26.835 30.3125C25.4849 30.3125 24.2117 30.5774 23.0154 31.1072C21.8191 31.6199 20.7766 32.3206 19.8879 33.2092C18.9993 34.0979 18.29 35.1404 17.7603 36.3367C17.2476 37.533 16.9912 38.8062 16.9912 40.1562H13.71C13.71 38.9087 13.8809 37.7039 14.2227 36.5417C14.5645 35.3625 15.0515 34.2688 15.6838 33.2605C16.3162 32.2351 17.0767 31.3123 17.9653 30.4919C18.8711 29.6545 19.8794 28.9539 20.9902 28.3899C19.7427 27.467 18.76 26.3049 18.0422 24.9036C17.3416 23.5022 16.9912 22.0239 16.9912 20.4688C16.9912 19.5801 16.8118 18.7341 16.4529 17.9309C16.1111 17.1277 15.6411 16.4355 15.043 15.8545C14.4619 15.2563 13.7698 14.7864 12.9666 14.4446C12.1633 14.0857 11.3174 13.9062 10.4287 13.9062C9.52295 13.9062 8.66846 14.0857 7.86523 14.4446C7.0791 14.7864 6.38696 15.2563 5.78882 15.8545C5.20776 16.4355 4.73779 17.1277 4.37891 17.9309C4.03711 18.7341 3.86621 19.5801 3.86621 20.4688H0.584961C0.584961 19.5801 0.70459 18.717 0.943848 17.8796C1.18311 17.0251 1.51636 16.2305 1.9436 15.4956C2.38794 14.7437 2.92627 14.0601 3.55859 13.4448C4.19092 12.8125 4.8916 12.2827 5.66064 11.8555C5.09668 11.2573 4.65234 10.5652 4.32764 9.77905C4.02002 8.99292 3.86621 8.18115 3.86621 7.34375C3.86621 6.45508 4.03711 5.60913 4.37891 4.80591C4.73779 4.00269 5.20776 3.31055 5.78882 2.72949C6.38696 2.13135 7.0791 1.66138 7.86523 1.31958C8.66846 0.960693 9.52295 0.78125 10.4287 0.78125C11.3174 0.78125 12.1633 0.960693 12.9666 1.31958C13.7698 1.66138 14.4619 2.13135 15.043 2.72949C15.6411 3.31055 16.1111 4.00269 16.4529 4.80591C16.8118 5.60913 16.9912 6.45508 16.9912 7.34375C16.9912 8.18115 16.8289 8.99292 16.5042 9.77905C16.1965 10.5652 15.7607 11.2573 15.1968 11.8555C16.5981 12.6245 17.7432 13.6841 18.6318 15.0342C19.5547 13.667 20.7339 12.5903 22.1694 11.8042C23.6221 11.0181 25.1772 10.625 26.835 10.625C28.4927 10.625 30.0393 11.0181 31.4749 11.8042C32.9275 12.5903 34.1152 13.667 35.0381 15.0342C35.9268 13.6841 37.0718 12.6245 38.4731 11.8555C37.9092 11.2573 37.4648 10.5652 37.1401 9.77905C36.8325 8.99292 36.6787 8.18115 36.6787 7.34375C36.6787 6.45508 36.8496 5.60913 37.1914 4.80591C37.5503 4.00269 38.0203 3.31055 38.6013 2.72949C39.1995 2.13135 39.8916 1.66138 40.6777 1.31958C41.481 0.960693 42.3354 0.78125 43.2412 0.78125C44.1299 0.78125 44.9758 0.960693 45.7791 1.31958C46.5823 1.66138 47.2744 2.13135 47.8555 2.72949C48.4536 3.31055 48.9236 4.00269 49.2654 4.80591C49.6243 5.60913 49.8037 6.45508 49.8037 7.34375C49.8037 8.18115 49.6414 8.99292 49.3167 9.77905C49.009 10.5652 48.5732 11.2573 48.0093 11.8555ZM7.14746 7.34375C7.14746 7.80518 7.23291 8.23242 7.40381 8.62549C7.57471 9.01855 7.80542 9.3689 8.09595 9.67651C8.40356 9.96704 8.75391 10.1978 9.14697 10.3687C9.54004 10.5396 9.96729 10.625 10.4287 10.625C10.8901 10.625 11.3174 10.5396 11.7104 10.3687C12.1035 10.1978 12.4453 9.96704 12.7358 9.67651C13.0435 9.3689 13.2827 9.01855 13.4536 8.62549C13.6245 8.23242 13.71 7.80518 13.71 7.34375C13.71 6.88232 13.6245 6.45508 13.4536 6.06201C13.2827 5.66895 13.0435 5.32715 12.7358 5.03662C12.4453 4.729 12.1035 4.48975 11.7104 4.31885C11.3174 4.14795 10.8901 4.0625 10.4287 4.0625C9.96729 4.0625 9.54004 4.14795 9.14697 4.31885C8.75391 4.48975 8.40356 4.729 8.09595 5.03662C7.80542 5.32715 7.57471 5.66895 7.40381 6.06201C7.23291 6.45508 7.14746 6.88232 7.14746 7.34375ZM26.835 27.0312C27.7236 27.0312 28.5696 26.8604 29.3728 26.5186C30.176 26.1597 30.8682 25.6897 31.4492 25.1086C32.0474 24.5105 32.5173 23.8184 32.8591 23.0322C33.218 22.229 33.3975 21.3745 33.3975 20.4688C33.3975 19.5801 33.218 18.7341 32.8591 17.9309C32.5173 17.1277 32.0474 16.4355 31.4492 15.8545C30.8682 15.2563 30.176 14.7864 29.3728 14.4446C28.5696 14.0857 27.7236 13.9062 26.835 13.9062C25.9292 13.9062 25.0747 14.0857 24.2715 14.4446C23.4854 14.7864 22.7932 15.2563 22.1951 15.8545C21.614 16.4355 21.144 17.1277 20.7852 17.9309C20.4434 18.7341 20.2725 19.5801 20.2725 20.4688C20.2725 21.3745 20.4434 22.229 20.7852 23.0322C21.144 23.8184 21.614 24.5105 22.1951 25.1086C22.7932 25.6897 23.4854 26.1597 24.2715 26.5186C25.0747 26.8604 25.9292 27.0312 26.835 27.0312ZM39.96 7.34375C39.96 7.80518 40.0454 8.23242 40.2163 8.62549C40.3872 9.01855 40.6179 9.3689 40.9084 9.67651C41.2161 9.96704 41.5664 10.1978 41.9595 10.3687C42.3525 10.5396 42.7798 10.625 43.2412 10.625C43.7026 10.625 44.1299 10.5396 44.5229 10.3687C44.916 10.1978 45.2578 9.96704 45.5483 9.67651C45.856 9.3689 46.0952 9.01855 46.2661 8.62549C46.437 8.23242 46.5225 7.80518 46.5225 7.34375C46.5225 6.88232 46.437 6.45508 46.2661 6.06201C46.0952 5.66895 45.856 5.32715 45.5483 5.03662C45.2578 4.729 44.916 4.48975 44.5229 4.31885C44.1299 4.14795 43.7026 4.0625 43.2412 4.0625C42.7798 4.0625 42.3525 4.14795 41.9595 4.31885C41.5664 4.48975 41.2161 4.729 40.9084 5.03662C40.6179 5.32715 40.3872 5.66895 40.2163 6.06201C40.0454 6.45508 39.96 6.88232 39.96 7.34375Z" fill="white"/>
</svg>
