<svg xmlns="http://www.w3.org/2000/svg" width="77" height="77" viewBox="0 0 77 77"><defs><style>.a{fill:#1a1a1a;stroke:#ea7c3f;stroke-miterlimit:10;stroke-width:2px;}.b{fill:#fff;}</style></defs><g transform="translate(-3747 -266.5)"><circle class="a" cx="37.5" cy="37.5" r="37.5" transform="translate(3748 267.5)"/><g transform="translate(3761.477 286.836)"><circle class="b" cx="0.925" cy="0.925" r="0.925" transform="translate(39.412 27.755)"/><circle class="b" cx="0.925" cy="0.925" r="0.925" transform="translate(33.861 27.755)"/><circle class="b" cx="0.925" cy="0.925" r="0.925" transform="translate(28.31 27.755)"/><circle class="b" cx="0.925" cy="0.925" r="0.925" transform="translate(22.759 27.755)"/><path class="b" d="M37.4,69.7a3.7,3.7,0,1,0-3.7,3.7A3.7,3.7,0,0,0,37.4,69.7Zm-3.7,1.85a1.85,1.85,0,1,1,1.85-1.85A1.852,1.852,0,0,1,33.7,71.551Z" transform="translate(-27.225 -66)"/><path class="b" d="M.925,154.326h11.1a.925.925,0,0,0,.925-.925v-.925a6.476,6.476,0,0,0-12.952,0v.925A.925.925,0,0,0,.925,154.326Zm5.551-6.476a4.623,4.623,0,0,1,4.626,4.626H1.85A4.631,4.631,0,0,1,6.476,147.85Z" transform="translate(0 -138.599)"/><path class="b" d="M.925,291.728h11.1a.925.925,0,0,0,.925-.925v-5.551a.925.925,0,0,0-.925-.925h-1.85V279.7a3.7,3.7,0,0,0-7.4,0v4.626H.925a.925.925,0,0,0-.925.925V290.8A.925.925,0,0,0,.925,291.728Zm3.7-12.027a1.85,1.85,0,0,1,3.7,0v4.626h-3.7ZM1.85,286.177H11.1v3.7H1.85Z" transform="translate(0 -256.571)"/><path class="b" d="M259.613,156.925a.925.925,0,0,0-.925-.925H240.925a.925.925,0,0,0,0,1.85h17.763A.925.925,0,0,0,259.613,156.925Z" transform="translate(-217.796 -147.673)"/><path class="b" d="M204.239,306H186.476a6.476,6.476,0,1,0,0,12.952h4.718a.925.925,0,0,0,0-1.85h-4.718a4.626,4.626,0,0,1,0-9.252h17.763a4.626,4.626,0,0,1,0,9.252h-4.718a.925.925,0,1,0,0,1.85h4.718a6.476,6.476,0,1,0,0-12.952Z" transform="translate(-163.347 -283.796)"/><path class="b" d="M204.239,96H186.476a6.476,6.476,0,0,0,0,12.952h4.718a.925.925,0,0,0,0-1.85h-4.718a4.626,4.626,0,1,1,0-9.252h17.763a4.626,4.626,0,1,1,0,9.252h-4.718a.925.925,0,1,0,0,1.85h4.718a6.476,6.476,0,0,0,0-12.952Z" transform="translate(-163.347 -93.224)"/><circle class="b" cx="0.925" cy="0.925" r="0.925" transform="translate(31.086 13.877)"/><circle class="b" cx="0.925" cy="0.925" r="0.925" transform="translate(31.086 33.306)"/></g></g></svg>