<svg xmlns="http://www.w3.org/2000/svg" width="77" height="77" viewBox="0 0 77 77"><defs><style>.a{fill:#1a1a1a;stroke:#ea7c3f;stroke-miterlimit:10;stroke-width:2px;}.b{fill:#fff;}</style></defs><g transform="translate(-268.5 -273.5)"><circle class="a" cx="37.5" cy="37.5" r="37.5" transform="translate(269.5 274.5)"/><g transform="translate(286.492 291.492)"><g transform="translate(0 6.836)"><path class="b" d="M38.851,89.816a5.469,5.469,0,1,0-6.91-.245H28.31l-4.585-4.585a.683.683,0,0,0-.967,0L20.025,87.72a.683.683,0,0,0,0,.967l6.152,6.152a.681.681,0,0,0,.483.2h5.469v4.785H20.418l3.393-5.089-1.138-.758-3.9,5.847H17.09V96.406a.683.683,0,0,0-.684-.684H10.938V92.988a3.418,3.418,0,0,0-2.164-3.173,5.469,5.469,0,1,0-6.609,0A3.418,3.418,0,0,0,0,92.988v9.57a3.422,3.422,0,0,0,3.418,3.418v8.2H4.785v-8.2H9.57v7.52a.683.683,0,0,0,.684.684h4.785a.683.683,0,0,0,.684-.684V103.242a3.4,3.4,0,0,0-.685-2.051h4.787v11.621H17.09v1.367h6.836v-1.367H21.191V101.191h4.8a3.383,3.383,0,0,0-.7,2.051V113.5a.683.683,0,0,0,.684.684h4.785a.683.683,0,0,0,.684-.684v-7.52H36.23v8.2H37.6v-8.2a3.422,3.422,0,0,0,3.418-3.418v-9.57A3.418,3.418,0,0,0,38.851,89.816ZM1.367,85.469a4.1,4.1,0,1,1,4.1,4.1A4.106,4.106,0,0,1,1.367,85.469ZM15.723,99.824H6.836V94.355H5.469v6.152a.683.683,0,0,0,.684.684H12.3a2.053,2.053,0,0,1,2.051,2.051v9.57H10.938v-7.52a.683.683,0,0,0-.684-.684H3.418a2.053,2.053,0,0,1-2.051-2.051v-9.57a2.053,2.053,0,0,1,2.051-2.051h4.1A2.053,2.053,0,0,1,9.57,92.988v3.418a.683.683,0,0,0,.684.684h5.469ZM31.445,85.469a4.1,4.1,0,1,1,4.1,4.1A4.106,4.106,0,0,1,31.445,85.469Zm8.2,17.09a2.053,2.053,0,0,1-2.051,2.051H30.762a.683.683,0,0,0-.684.684v7.52H26.66v-9.57a2.053,2.053,0,0,1,2.051-2.051h4.1a.683.683,0,0,0,.684-.684V94.355a.683.683,0,0,0-.684-.684H26.943L21.474,88.2l1.768-1.768,4.3,4.3a.681.681,0,0,0,.483.2H37.6a2.053,2.053,0,0,1,2.051,2.051Z" transform="translate(0 -80)"/></g><g transform="translate(11.621)"><path class="b" d="M151.723,0H138.051A2.053,2.053,0,0,0,136,2.051V7.52a2.053,2.053,0,0,0,2.051,2.051h.684v4.1a.683.683,0,0,0,.422.632.675.675,0,0,0,.262.052.684.684,0,0,0,.483-.2l4.585-4.585h7.237a2.053,2.053,0,0,0,2.051-2.051V2.051A2.053,2.053,0,0,0,151.723,0Zm.684,7.52a.684.684,0,0,1-.684.684H144.2a.681.681,0,0,0-.483.2L140.1,12.022V8.887a.683.683,0,0,0-.684-.684h-1.367a.684.684,0,0,1-.684-.684V2.051a.684.684,0,0,1,.684-.684h13.672a.684.684,0,0,1,.684.684Z" transform="translate(-136)"/></g><g transform="translate(14.395 2.703)"><g transform="translate(0 0)"><rect class="b" width="4.097" height="1.439"/></g></g><g transform="translate(14.395 5.471)"><g transform="translate(0 0)"><rect class="b" width="12.291" height="1.329"/></g></g><g transform="translate(19.821 2.703)"><g transform="translate(0 0)"><rect class="b" width="6.865" height="1.439"/></g></g></g></g></svg>