<svg width="18" height="19" viewBox="0 0 18 19" fill="none" xmlns="http://www.w3.org/2000/svg">
<path d="M5.27114 8.25464C6.46626 7.05951 8.55062 7.05951 9.74574 8.25464L10.4915 9.00041L11.983 7.50887L11.2373 6.7631C10.2426 5.76734 8.9177 5.21777 7.50844 5.21777C6.09918 5.21777 4.77431 5.76734 3.7796 6.7631L1.54125 9.00041C0.554232 9.9906 0 11.3317 0 12.7298C0 14.1279 0.554232 15.4689 1.54125 16.4591C2.03056 16.9491 2.61187 17.3376 3.25178 17.6023C3.8917 17.867 4.5776 18.0026 5.27008 18.0013C5.96275 18.0027 6.64887 17.8672 7.28898 17.6026C7.9291 17.3379 8.51058 16.9493 8.99998 16.4591L9.74574 15.7134L8.25421 14.2218L7.50844 14.9676C6.91401 15.5594 6.10938 15.8916 5.27061 15.8916C4.43184 15.8916 3.62721 15.5594 3.03278 14.9676C2.4405 14.3734 2.10791 13.5687 2.10791 12.7298C2.10791 11.8908 2.4405 11.0861 3.03278 10.4919L5.27114 8.25464Z" fill="white"/>
<path d="M8.99967 1.54212L8.2539 2.28788L9.74544 3.77942L10.4912 3.03365C11.0856 2.44188 11.8903 2.10965 12.729 2.10965C13.5678 2.10965 14.3724 2.44188 14.9669 3.03365C15.5592 3.62781 15.8917 4.43254 15.8917 5.27148C15.8917 6.11042 15.5592 6.91515 14.9669 7.50931L12.7285 9.74661C11.5334 10.9417 9.44903 10.9417 8.2539 9.74661L7.50814 9.00084L6.0166 10.4924L6.76237 11.2381C7.75708 12.2339 9.08195 12.7835 10.4912 12.7835C11.9005 12.7835 13.2253 12.2339 14.22 11.2381L16.4584 9.00084C17.4454 8.01066 17.9996 6.66958 17.9996 5.27148C17.9996 3.87339 17.4454 2.53231 16.4584 1.54212C15.4685 0.554587 14.1273 0 12.729 0C11.3308 0 9.98959 0.554587 8.99967 1.54212Z" fill="white"/>
</svg>
