<svg width="15" height="20" viewBox="0 0 15 20" fill="none" xmlns="http://www.w3.org/2000/svg">
<path d="M14.2857 15.8182H13.75V8.09091C13.75 4.88409 11.4219 2.23409 8.39286 1.79318V0.909091C8.39286 0.406818 7.9933 0 7.5 0C7.0067 0 6.60714 0.406818 6.60714 0.909091V1.79318C3.57813 2.23409 1.25 4.88409 1.25 8.09091V15.8182H0.714286C0.319196 15.8182 0 16.1432 0 16.5455V17.2727C0 17.3727 0.0803571 17.4545 0.178571 17.4545H5C5 18.8591 6.12054 20 7.5 20C8.87946 20 10 18.8591 10 17.4545H14.8214C14.9196 17.4545 15 17.3727 15 17.2727V16.5455C15 16.1432 14.6808 15.8182 14.2857 15.8182ZM7.5 18.5455C6.90848 18.5455 6.42857 18.0568 6.42857 17.4545H8.57143C8.57143 18.0568 8.09152 18.5455 7.5 18.5455ZM2.85714 15.8182V8.09091C2.85714 6.82727 3.33929 5.64091 4.21652 4.74773C5.09375 3.85455 6.25893 3.36364 7.5 3.36364C8.74107 3.36364 9.90625 3.85455 10.7835 4.74773C11.6607 5.64091 12.1429 6.82727 12.1429 8.09091V15.8182H2.85714Z" fill="white"/>
</svg>
