<svg xmlns="http://www.w3.org/2000/svg" width="77" height="77" viewBox="0 0 77 77"><defs><style>.a{fill:#1a1a1a;stroke:#ea7c3f;stroke-miterlimit:10;stroke-width:2px;}.b{fill:#fff;}</style></defs><g transform="translate(-36.5 -651)"><circle class="a" cx="37.5" cy="37.5" r="37.5" transform="translate(37.5 652)"/><g transform="translate(54.492 668.409)"><path class="b" d="M39.6,6.1H36.18V4.734a2.734,2.734,0,1,0-5.469,0V6.1H25.242V4.734a2.734,2.734,0,1,0-5.469,0V6.1H14.3V4.734a2.734,2.734,0,1,0-5.469,0V6.1H5.418A3.418,3.418,0,0,0,2,9.52V36.863a3.418,3.418,0,0,0,3.418,3.418H24.559a.684.684,0,0,0,0-1.367H5.418a2.057,2.057,0,0,1-2.051-2.051V15.672H41.648V27.293a.684.684,0,0,0,1.367,0V9.52A3.418,3.418,0,0,0,39.6,6.1Zm-7.52-1.367a1.367,1.367,0,1,1,2.734,0v4.1a1.367,1.367,0,1,1-2.734,0Zm-10.937,0a1.367,1.367,0,0,1,2.734,0v4.1a1.367,1.367,0,0,1-2.734,0Zm-10.938,0a1.367,1.367,0,0,1,2.734,0v4.1a1.367,1.367,0,0,1-2.734,0ZM41.648,14.3H3.367V9.52A2.057,2.057,0,0,1,5.418,7.469H8.836V8.836a2.734,2.734,0,0,0,5.469,0V7.469h5.469V8.836a2.734,2.734,0,1,0,5.469,0V7.469h5.469V8.836a2.734,2.734,0,1,0,5.469,0V7.469H39.6A2.057,2.057,0,0,1,41.648,9.52Z" transform="translate(-2 -2)"/><path class="b" d="M27.469,28.367A1.367,1.367,0,0,0,26.1,27H23.367A1.367,1.367,0,0,0,22,28.367v2.051a1.367,1.367,0,0,0,1.367,1.367H26.1a1.367,1.367,0,0,0,1.367-1.367Zm-4.1,2.051V28.367H26.1v2.051Z" transform="translate(-8.328 -9.91)"/><path class="b" d="M15.469,28.367A1.367,1.367,0,0,0,14.1,27H11.367A1.367,1.367,0,0,0,10,28.367v2.051a1.367,1.367,0,0,0,1.367,1.367H14.1a1.367,1.367,0,0,0,1.367-1.367Zm-4.1,2.051V28.367H14.1v2.051Z" transform="translate(-4.531 -9.91)"/><path class="b" d="M50.1,31.785a1.367,1.367,0,0,0,1.367-1.367V28.367A1.367,1.367,0,0,0,50.1,27H47.367A1.367,1.367,0,0,0,46,28.367v2.051a1.367,1.367,0,0,0,1.367,1.367Zm-2.734-3.418H50.1v2.051H47.367Z" transform="translate(-15.922 -9.91)"/><path class="b" d="M27.469,37.367A1.367,1.367,0,0,0,26.1,36H23.367A1.367,1.367,0,0,0,22,37.367v2.051a1.367,1.367,0,0,0,1.367,1.367H26.1a1.367,1.367,0,0,0,1.367-1.367Zm-4.1,2.051V37.367H26.1v2.051Z" transform="translate(-8.328 -12.758)"/><path class="b" d="M15.469,37.367A1.367,1.367,0,0,0,14.1,36H11.367A1.367,1.367,0,0,0,10,37.367v2.051a1.367,1.367,0,0,0,1.367,1.367H14.1a1.367,1.367,0,0,0,1.367-1.367Zm-4.1,2.051V37.367H14.1v2.051Z" transform="translate(-4.531 -12.758)"/><path class="b" d="M26.1,45H23.367A1.367,1.367,0,0,0,22,46.367v2.051a1.367,1.367,0,0,0,1.367,1.367H26.1a1.367,1.367,0,0,0,1.367-1.367V46.367A1.367,1.367,0,0,0,26.1,45Zm-2.734,3.418V46.367H26.1v2.051Z" transform="translate(-8.328 -15.605)"/><path class="b" d="M35.367,31.785H38.1a1.367,1.367,0,0,0,1.367-1.367V28.367A1.367,1.367,0,0,0,38.1,27H35.367A1.367,1.367,0,0,0,34,28.367v2.051A1.367,1.367,0,0,0,35.367,31.785Zm0-3.418H38.1v2.051H35.367Z" transform="translate(-12.125 -9.91)"/><path class="b" d="M34,39.418a1.367,1.367,0,0,0,1.367,1.367.684.684,0,1,0,0-1.367V37.367H38.1A.684.684,0,0,0,38.1,36H35.367A1.367,1.367,0,0,0,34,37.367Z" transform="translate(-12.125 -12.758)"/><path class="b" d="M14.1,45H11.367A1.367,1.367,0,0,0,10,46.367v2.051a1.367,1.367,0,0,0,1.367,1.367H14.1a1.367,1.367,0,0,0,1.367-1.367V46.367A1.367,1.367,0,0,0,14.1,45Zm-2.734,3.418V46.367H14.1v2.051Z" transform="translate(-4.531 -15.605)"/><path class="b" d="M44.887,36a8.887,8.887,0,1,0,8.887,8.887A8.887,8.887,0,0,0,44.887,36Zm0,16.406a7.52,7.52,0,1,1,7.52-7.52A7.52,7.52,0,0,1,44.887,52.406Z" transform="translate(-12.758 -12.758)"/><path class="b" d="M50.658,44.715l-5.317,5.317-2.417-2.417a.684.684,0,1,0-.967.967l2.9,2.9a.684.684,0,0,0,.967,0l5.8-5.8a.684.684,0,1,0-.967-.967Z" transform="translate(-14.58 -15.452)"/></g></g></svg>