<svg width="51" height="51" viewBox="0 0 51 51" fill="none" xmlns="http://www.w3.org/2000/svg">
<path d="M25.5544 50.7187C23.2461 50.7187 21.0271 50.4261 18.8975 49.8409C16.7842 49.2394 14.801 48.4022 12.9478 47.3293C11.0946 46.2402 9.40392 44.9397 7.87583 43.4278C6.36401 41.8997 5.06351 40.2091 3.97435 38.3559C2.90144 36.5027 2.06424 34.5113 1.46276 32.3817C0.877542 30.2522 0.58493 28.0413 0.58493 25.7492C0.58493 23.4571 0.877542 21.2463 1.46276 19.1167C2.06424 16.9871 2.90144 14.9957 3.97435 13.1425C5.06351 11.2893 6.36401 9.60682 7.87583 8.095C9.40392 6.56691 11.0946 5.26642 12.9478 4.19351C14.801 3.10434 16.7924 2.26715 18.9219 1.68193C21.0515 1.08045 23.2623 0.779709 25.5544 0.779709C27.8466 0.779709 30.0574 1.08045 32.187 1.68193C34.3165 2.26715 36.3079 3.10434 38.1611 4.19351C40.0143 5.26642 41.6968 6.56691 43.2087 8.095C44.7368 9.60682 46.0372 11.2893 47.1102 13.1425C48.1993 14.9957 49.0365 16.9871 49.6217 19.1167C50.2232 21.2463 50.524 23.4571 50.524 25.7492C50.524 28.0576 50.2232 30.2766 49.6217 32.4061C49.0365 34.5194 48.1993 36.5027 47.1102 38.3559C46.0372 40.2091 44.7368 41.8997 43.2087 43.4278C41.6968 44.9397 40.0143 46.2402 38.1611 47.3293C36.3079 48.4022 34.3165 49.2394 32.187 49.8409C30.0574 50.4261 27.8466 50.7187 25.5544 50.7187ZM25.5544 3.9009C23.5549 3.9009 21.6204 4.161 19.751 4.6812C17.8978 5.20139 16.1584 5.94105 14.5327 6.90017C12.9234 7.84302 11.4522 8.98096 10.1192 10.314C8.78618 11.647 7.64012 13.1263 6.681 14.7519C5.73814 16.3613 5.00662 18.1007 4.48642 19.9701C3.96622 21.8234 3.70612 23.7497 3.70612 25.7492C3.70612 27.7487 3.96622 29.6832 4.48642 31.5527C5.00662 33.4059 5.73814 35.1453 6.681 36.7709C7.64012 38.3803 8.78618 39.8515 10.1192 41.1845C11.4522 42.5175 12.9234 43.6635 14.5327 44.6227C16.1584 45.5655 17.8978 46.2971 19.751 46.8172C21.6204 47.3374 23.5549 47.5975 25.5544 47.5975C27.554 47.5975 29.4803 47.3374 31.3335 46.8172C33.203 46.2971 34.9424 45.5655 36.5518 44.6227C38.1774 43.6635 39.6567 42.5175 40.9897 41.1845C42.3227 39.8515 43.4606 38.3803 44.4035 36.7709C45.3626 35.1453 46.1023 33.4059 46.6225 31.5527C47.1427 29.6832 47.4028 27.7487 47.4028 25.7492C47.4028 23.7497 47.1427 21.8234 46.6225 19.9701C46.1023 18.1007 45.3626 16.3613 44.4035 14.7519C43.4606 13.1263 42.3227 11.647 40.9897 10.314C39.6567 8.98096 38.1774 7.84302 36.5518 6.90017C34.9424 5.94105 33.203 5.20139 31.3335 4.6812C29.4803 4.161 27.554 3.9009 25.5544 3.9009ZM25.5544 25.7492V10.1433H22.4333V28.8704H34.918V25.7492H25.5544Z" fill="white"/>
</svg>
