<svg width="23" height="23" viewBox="0 0 23 23" fill="none" xmlns="http://www.w3.org/2000/svg">
<path d="M11.5 0C8.45001 0 5.52494 1.21163 3.36827 3.36836C1.2116 5.52508 0 8.45023 0 11.5003C7.86245e-05 13.0105 0.297613 14.506 0.875615 15.9012C1.45362 17.2965 2.30077 18.5642 3.3687 19.6321C4.43662 20.6999 5.70442 21.5469 7.09969 22.1248C8.49497 22.7027 9.9904 23.0001 11.5006 23C13.0108 22.9999 14.5062 22.7024 15.9014 22.1244C17.2966 21.5463 18.5643 20.6992 19.6322 19.6312C20.7 18.5633 21.547 17.2954 22.1248 15.9001C22.7027 14.5048 23.0001 13.0093 23 11.4991C23 5.14878 17.8502 0 11.5 0ZM11.5 20.6035C10.2957 20.6173 9.10066 20.392 7.98405 19.9407C6.86743 19.4894 5.85146 18.821 4.99498 17.9743C4.13849 17.1276 3.45852 16.1193 2.99444 15.0079C2.53036 13.8965 2.2914 12.7041 2.2914 11.4997C2.2914 10.2953 2.53036 9.10288 2.99444 7.99149C3.45852 6.8801 4.13849 5.87183 4.99498 5.0251C5.85146 4.17836 6.86743 3.50998 7.98405 3.05867C9.10066 2.60735 10.2957 2.38208 11.5 2.3959C12.7043 2.38208 13.8993 2.60735 15.016 3.05867C16.1326 3.50998 17.1485 4.17836 18.005 5.0251C18.8615 5.87183 19.5415 6.8801 20.0056 7.99149C20.4696 9.10288 20.7086 10.2953 20.7086 11.4997C20.7086 12.7041 20.4696 13.8965 20.0056 15.0079C19.5415 16.1193 18.8615 17.1276 18.005 17.9743C17.1485 18.821 16.1326 19.4894 15.016 19.9407C13.8993 20.392 12.7043 20.6173 11.5 20.6035ZM8.50641 11.2008C9.49828 11.2008 10.3021 10.2628 10.3021 9.1044C10.3021 7.94599 9.49708 7.00799 8.50521 7.00799C7.51333 7.00799 6.70833 7.94599 6.70833 9.1044C6.70833 10.2628 7.51333 11.2008 8.50641 11.2008ZM14.4948 11.2008C15.4879 11.2008 16.2917 10.2628 16.2917 9.1044C16.2917 7.94599 15.4867 7.00799 14.4948 7.00799C13.5029 7.00799 12.6979 7.94719 12.6979 9.1044C12.6979 10.2616 13.5029 11.2008 14.4948 11.2008ZM16.7002 13.1008C16.4887 12.9941 16.2439 12.9745 16.0182 13.0461C15.7925 13.1178 15.6038 13.275 15.4927 13.4841C15.4519 13.5632 14.4517 15.3924 11.5012 15.3924C8.5651 15.3924 7.55885 13.5799 7.50854 13.4853C7.40084 13.2726 7.21305 13.1114 6.98649 13.0371C6.75993 12.9629 6.51315 12.9817 6.30044 13.0894C6.08774 13.1971 5.92653 13.3849 5.85228 13.6114C5.77803 13.838 5.79683 14.0848 5.90453 14.2975C5.96443 14.4161 7.39953 17.1894 11.5012 17.1894C15.6041 17.1894 17.0368 14.4149 17.0955 14.2963C17.201 14.0852 17.2187 13.841 17.1446 13.6169C17.0705 13.3929 16.9107 13.2073 16.7002 13.1008Z" fill="#EF7921"/>
</svg>
