<svg xmlns="http://www.w3.org/2000/svg" width="77" height="77" viewBox="0 0 77 77"><defs><style>.a{fill:#1a1a1a;stroke:#ea7c3f;stroke-miterlimit:10;stroke-width:2px;}.b{fill:#fff;}</style></defs><g transform="translate(-268.5 -651.5)"><circle class="a" cx="37.5" cy="37.5" r="37.5" transform="translate(269.5 652.5)"/><g transform="translate(286.492 669.492)"><path class="b" d="M34.424,19.926a10.254,10.254,0,1,0,3.083,7.328,10.254,10.254,0,0,0-3.083-7.328Zm1.682,6.645H32.025a21.142,21.142,0,0,0-.424-3.712,10.634,10.634,0,0,0,2.3-1.483A8.736,8.736,0,0,1,36.106,26.571ZM32.92,20.419a9.018,9.018,0,0,1-1.661,1.087,10.049,10.049,0,0,0-1.217-2.68,8.894,8.894,0,0,1,2.878,1.593Zm-9.071,6.152a20.37,20.37,0,0,1,.349-3.206,10.134,10.134,0,0,0,6.111,0,20.372,20.372,0,0,1,.349,3.206Zm6.809,1.367a20.371,20.371,0,0,1-.349,3.206,10.134,10.134,0,0,0-6.111,0,20.371,20.371,0,0,1-.349-3.206Zm-3.4-9.57c.991,0,2.058,1.388,2.728,3.664a8.721,8.721,0,0,1-5.455,0C25.2,19.755,26.262,18.368,27.253,18.368Zm-2.789.458a10.049,10.049,0,0,0-1.217,2.68,9.017,9.017,0,0,1-1.661-1.087,8.894,8.894,0,0,1,2.878-1.593Zm-3.855,2.55a10.634,10.634,0,0,0,2.3,1.483,21.14,21.14,0,0,0-.424,3.712H18.4A8.736,8.736,0,0,1,20.609,21.376ZM18.4,27.938h4.081a21.14,21.14,0,0,0,.424,3.712,10.634,10.634,0,0,0-2.3,1.483,8.736,8.736,0,0,1-2.208-5.2Zm3.192,6.152A8.744,8.744,0,0,1,23.248,33a10.049,10.049,0,0,0,1.217,2.68A8.792,8.792,0,0,1,21.593,34.09Zm5.66,2.051c-.991,0-2.058-1.388-2.728-3.664a8.721,8.721,0,0,1,5.455,0C29.311,34.753,28.245,36.141,27.253,36.141Zm2.789-.458A10.049,10.049,0,0,0,31.259,33,9.018,9.018,0,0,1,32.92,34.09,8.893,8.893,0,0,1,30.042,35.683Zm3.855-2.55a10.634,10.634,0,0,0-2.3-1.483,21.141,21.141,0,0,0,.424-3.712h4.081A8.736,8.736,0,0,1,33.9,33.133Z" transform="translate(-6.746 -6.747)"/><path class="b" d="M27,11h1.367v1.367H27Z" transform="translate(-9.91 -4.848)"/><path class="b" d="M31,11h1.367v1.367H31Z" transform="translate(-11.176 -4.848)"/><path class="b" d="M35,11h1.367v1.367H35Z" transform="translate(-12.441 -4.848)"/><path class="b" d="M27,51h1.367v1.367H27Z" transform="translate(-9.91 -17.504)"/><path class="b" d="M31,51h1.367v1.367H31Z" transform="translate(-11.176 -17.504)"/><path class="b" d="M35,51h1.367v1.367H35Z" transform="translate(-12.441 -17.504)"/><path class="b" d="M11,27h1.367v1.367H11Z" transform="translate(-4.848 -9.91)"/><path class="b" d="M11,31h1.367v1.367H11Z" transform="translate(-4.848 -11.176)"/><path class="b" d="M11,35h1.367v1.367H11Z" transform="translate(-4.848 -12.441)"/><path class="b" d="M51,27h1.367v1.367H51Z" transform="translate(-17.504 -9.91)"/><path class="b" d="M51,31h1.367v1.367H51Z" transform="translate(-17.504 -11.176)"/><path class="b" d="M51,35h1.367v1.367H51Z" transform="translate(-17.504 -12.441)"/><path class="b" d="M9.52,2a7.52,7.52,0,1,0,7.52,7.52A7.52,7.52,0,0,0,9.52,2Zm3.418,12.633a6.141,6.141,0,0,1-6.836,0V13.621A2.057,2.057,0,0,1,8.152,11.57h2.734a2.057,2.057,0,0,1,2.051,2.051Zm-4.785-5.8V7.469a1.367,1.367,0,1,1,2.734,0V8.836a1.367,1.367,0,1,1-2.734,0Zm6.132,4.573A3.418,3.418,0,0,0,11.8,10.34a2.71,2.71,0,0,0,.458-1.5V7.469a2.734,2.734,0,0,0-5.469,0V8.836a2.71,2.71,0,0,0,.458,1.5,3.418,3.418,0,0,0-2.488,3.069,6.152,6.152,0,1,1,9.529,0Z" transform="translate(-2 -2)"/><path class="b" d="M47.52,2a7.52,7.52,0,1,0,7.52,7.52A7.52,7.52,0,0,0,47.52,2Zm3.418,12.633a6.141,6.141,0,0,1-6.836,0V13.621a2.057,2.057,0,0,1,2.051-2.051h2.734a2.057,2.057,0,0,1,2.051,2.051Zm-4.785-5.8V7.469a1.367,1.367,0,0,1,2.734,0V8.836a1.367,1.367,0,0,1-2.734,0Zm6.132,4.573A3.418,3.418,0,0,0,49.8,10.34a2.71,2.71,0,0,0,.458-1.5V7.469a2.734,2.734,0,0,0-5.469,0V8.836a2.71,2.71,0,0,0,.458,1.5,3.418,3.418,0,0,0-2.488,3.069,6.152,6.152,0,1,1,9.529,0Z" transform="translate(-14.023 -2)"/><path class="b" d="M9.52,40a7.52,7.52,0,1,0,7.52,7.52A7.52,7.52,0,0,0,9.52,40Zm3.418,12.633a6.141,6.141,0,0,1-6.836,0V51.621A2.057,2.057,0,0,1,8.152,49.57h2.734a2.057,2.057,0,0,1,2.051,2.051Zm-4.785-5.8V45.469a1.367,1.367,0,1,1,2.734,0v1.367a1.367,1.367,0,1,1-2.734,0Zm6.132,4.573A3.418,3.418,0,0,0,11.8,48.34a2.71,2.71,0,0,0,.458-1.5V45.469a2.734,2.734,0,1,0-5.469,0v1.367a2.71,2.71,0,0,0,.458,1.5,3.418,3.418,0,0,0-2.488,3.069,6.152,6.152,0,1,1,9.529,0Z" transform="translate(-2 -14.023)"/><path class="b" d="M47.52,40a7.52,7.52,0,1,0,7.52,7.52A7.52,7.52,0,0,0,47.52,40Zm3.418,12.633a6.141,6.141,0,0,1-6.836,0V51.621a2.057,2.057,0,0,1,2.051-2.051h2.734a2.057,2.057,0,0,1,2.051,2.051Zm-4.785-5.8V45.469a1.367,1.367,0,0,1,2.734,0v1.367a1.367,1.367,0,0,1-2.734,0Zm6.132,4.573A3.418,3.418,0,0,0,49.8,48.34a2.711,2.711,0,0,0,.458-1.5V45.469a2.734,2.734,0,0,0-5.469,0v1.367a2.71,2.71,0,0,0,.458,1.5,3.418,3.418,0,0,0-2.488,3.069,6.152,6.152,0,1,1,9.529,0Z" transform="translate(-14.023 -14.023)"/></g></g></svg>